<svg width="72" height="13" viewBox="0 0 72 13" fill="none" xmlns="http://www.w3.org/2000/svg">
<path d="M2.484 3.612V6.828C2.484 7.052 2.536 7.216 2.64 7.32C2.752 7.416 2.936 7.464 3.192 7.464H3.972V8.88H2.916C1.5 8.88 0.791997 8.192 0.791997 6.816V3.612H-3.04729e-06V2.232H0.791997V0.588001H2.484V2.232H3.972V3.612H2.484ZM11.5403 2.232L7.42434 12.024H5.63634L7.07634 8.712L4.41234 2.232H6.29634L8.01234 6.876L9.75234 2.232H11.5403ZM14.126 3.192C14.342 2.888 14.638 2.636 15.014 2.436C15.398 2.228 15.834 2.124 16.322 2.124C16.89 2.124 17.402 2.264 17.858 2.544C18.322 2.824 18.686 3.224 18.95 3.744C19.222 4.256 19.358 4.852 19.358 5.532C19.358 6.212 19.222 6.816 18.95 7.344C18.686 7.864 18.322 8.268 17.858 8.556C17.402 8.844 16.89 8.988 16.322 8.988C15.834 8.988 15.402 8.888 15.026 8.688C14.658 8.488 14.358 8.236 14.126 7.932V12.048H12.446V2.232H14.126V3.192ZM17.642 5.532C17.642 5.132 17.558 4.788 17.39 4.5C17.23 4.204 17.014 3.98 16.742 3.828C16.478 3.676 16.19 3.6 15.878 3.6C15.574 3.6 15.286 3.68 15.014 3.84C14.75 3.992 14.534 4.216 14.366 4.512C14.206 4.808 14.126 5.156 14.126 5.556C14.126 5.956 14.206 6.304 14.366 6.6C14.534 6.896 14.75 7.124 15.014 7.284C15.286 7.436 15.574 7.512 15.878 7.512C16.19 7.512 16.478 7.432 16.742 7.272C17.014 7.112 17.23 6.884 17.39 6.588C17.558 6.292 17.642 5.94 17.642 5.532ZM23.5308 8.988C22.8908 8.988 22.3148 8.848 21.8028 8.568C21.2908 8.28 20.8868 7.876 20.5908 7.356C20.3028 6.836 20.1588 6.236 20.1588 5.556C20.1588 4.876 20.3068 4.276 20.6028 3.756C20.9068 3.236 21.3188 2.836 21.8388 2.556C22.3588 2.268 22.9388 2.124 23.5788 2.124C24.2188 2.124 24.7988 2.268 25.3188 2.556C25.8388 2.836 26.2468 3.236 26.5428 3.756C26.8468 4.276 26.9988 4.876 26.9988 5.556C26.9988 6.236 26.8428 6.836 26.5308 7.356C26.2268 7.876 25.8108 8.28 25.2828 8.568C24.7628 8.848 24.1788 8.988 23.5308 8.988ZM23.5308 7.524C23.8348 7.524 24.1188 7.452 24.3828 7.308C24.6548 7.156 24.8708 6.932 25.0308 6.636C25.1908 6.34 25.2708 5.98 25.2708 5.556C25.2708 4.924 25.1028 4.44 24.7668 4.104C24.4388 3.76 24.0348 3.588 23.5548 3.588C23.0748 3.588 22.6708 3.76 22.3428 4.104C22.0228 4.44 21.8628 4.924 21.8628 5.556C21.8628 6.188 22.0188 6.676 22.3308 7.02C22.6508 7.356 23.0508 7.524 23.5308 7.524ZM30.8351 2.124C31.3311 2.124 31.7671 2.224 32.1431 2.424C32.5191 2.616 32.8151 2.868 33.0311 3.18V2.232H34.7231V8.928C34.7231 9.544 34.5991 10.092 34.3511 10.572C34.1031 11.06 33.7311 11.444 33.2351 11.724C32.7391 12.012 32.1391 12.156 31.4351 12.156C30.4911 12.156 29.7151 11.936 29.1071 11.496C28.5071 11.056 28.1671 10.456 28.0871 9.696H29.7551C29.8431 10 30.0311 10.24 30.3191 10.416C30.6151 10.6 30.9711 10.692 31.3871 10.692C31.8751 10.692 32.2711 10.544 32.5751 10.248C32.8791 9.96 33.0311 9.52 33.0311 8.928V7.896C32.8151 8.208 32.5151 8.468 32.1311 8.676C31.7551 8.884 31.3231 8.988 30.8351 8.988C30.2751 8.988 29.7631 8.844 29.2991 8.556C28.8351 8.268 28.4671 7.864 28.1951 7.344C27.9311 6.816 27.7991 6.212 27.7991 5.532C27.7991 4.86 27.9311 4.264 28.1951 3.744C28.4671 3.224 28.8311 2.824 29.2871 2.544C29.7511 2.264 30.2671 2.124 30.8351 2.124ZM33.0311 5.556C33.0311 5.148 32.9511 4.8 32.7911 4.512C32.6311 4.216 32.4151 3.992 32.1431 3.84C31.8711 3.68 31.5791 3.6 31.2671 3.6C30.9551 3.6 30.6671 3.676 30.4031 3.828C30.1391 3.98 29.9231 4.204 29.7551 4.5C29.5951 4.788 29.5151 5.132 29.5151 5.532C29.5151 5.932 29.5951 6.284 29.7551 6.588C29.9231 6.884 30.1391 7.112 30.4031 7.272C30.6751 7.432 30.9631 7.512 31.2671 7.512C31.5791 7.512 31.8711 7.436 32.1431 7.284C32.4151 7.124 32.6311 6.9 32.7911 6.612C32.9511 6.316 33.0311 5.964 33.0311 5.556ZM38.0439 3.264C38.2599 2.912 38.5399 2.636 38.8839 2.436C39.2359 2.236 39.6359 2.136 40.0839 2.136V3.9H39.6399C39.1119 3.9 38.7119 4.024 38.4399 4.272C38.1759 4.52 38.0439 4.952 38.0439 5.568V8.88H36.3639V2.232H38.0439V3.264ZM40.7835 5.532C40.7835 4.86 40.9155 4.264 41.1795 3.744C41.4515 3.224 41.8155 2.824 42.2715 2.544C42.7355 2.264 43.2515 2.124 43.8195 2.124C44.3155 2.124 44.7475 2.224 45.1155 2.424C45.4915 2.624 45.7915 2.876 46.0155 3.18V2.232H47.7075V8.88H46.0155V7.908C45.7995 8.22 45.4995 8.48 45.1155 8.688C44.7395 8.888 44.3035 8.988 43.8075 8.988C43.2475 8.988 42.7355 8.844 42.2715 8.556C41.8155 8.268 41.4515 7.864 41.1795 7.344C40.9155 6.816 40.7835 6.212 40.7835 5.532ZM46.0155 5.556C46.0155 5.148 45.9355 4.8 45.7755 4.512C45.6155 4.216 45.3995 3.992 45.1275 3.84C44.8555 3.68 44.5635 3.6 44.2515 3.6C43.9395 3.6 43.6515 3.676 43.3875 3.828C43.1235 3.98 42.9075 4.204 42.7395 4.5C42.5795 4.788 42.4995 5.132 42.4995 5.532C42.4995 5.932 42.5795 6.284 42.7395 6.588C42.9075 6.884 43.1235 7.112 43.3875 7.272C43.6595 7.432 43.9475 7.512 44.2515 7.512C44.5635 7.512 44.8555 7.436 45.1275 7.284C45.3995 7.124 45.6155 6.9 45.7755 6.612C45.9355 6.316 46.0155 5.964 46.0155 5.556ZM51.0283 3.192C51.2443 2.888 51.5403 2.636 51.9163 2.436C52.3003 2.228 52.7363 2.124 53.2243 2.124C53.7923 2.124 54.3043 2.264 54.7603 2.544C55.2243 2.824 55.5883 3.224 55.8523 3.744C56.1243 4.256 56.2603 4.852 56.2603 5.532C56.2603 6.212 56.1243 6.816 55.8523 7.344C55.5883 7.864 55.2243 8.268 54.7603 8.556C54.3043 8.844 53.7923 8.988 53.2243 8.988C52.7363 8.988 52.3043 8.888 51.9283 8.688C51.5603 8.488 51.2603 8.236 51.0283 7.932V12.048H49.3483V2.232H51.0283V3.192ZM54.5443 5.532C54.5443 5.132 54.4603 4.788 54.2923 4.5C54.1323 4.204 53.9163 3.98 53.6443 3.828C53.3803 3.676 53.0923 3.6 52.7803 3.6C52.4763 3.6 52.1883 3.68 51.9163 3.84C51.6523 3.992 51.4363 4.216 51.2683 4.512C51.1083 4.808 51.0283 5.156 51.0283 5.556C51.0283 5.956 51.1083 6.304 51.2683 6.6C51.4363 6.896 51.6523 7.124 51.9163 7.284C52.1883 7.436 52.4763 7.512 52.7803 7.512C53.0923 7.512 53.3803 7.432 53.6443 7.272C53.9163 7.112 54.1323 6.884 54.2923 6.588C54.4603 6.292 54.5443 5.94 54.5443 5.532ZM61.2251 2.136C61.7291 2.136 62.1771 2.248 62.5691 2.472C62.9611 2.688 63.2651 3.012 63.4811 3.444C63.7051 3.868 63.8171 4.38 63.8171 4.98V8.88H62.1371V5.208C62.1371 4.68 62.0051 4.276 61.7411 3.996C61.4771 3.708 61.1171 3.564 60.6611 3.564C60.1971 3.564 59.8291 3.708 59.5571 3.996C59.2931 4.276 59.1611 4.68 59.1611 5.208V8.88H57.4811V9.53674e-07H59.1611V3.06C59.3771 2.772 59.6651 2.548 60.0251 2.388C60.3851 2.22 60.7851 2.136 61.2251 2.136ZM71.7747 2.232L67.6587 12.024H65.8707L67.3107 8.712L64.6467 2.232H66.5307L68.2467 6.876L69.9867 2.232H71.7747Z" fill="#F356BF"/>
</svg>
